<mxfile host="app.diagrams.net" agent="Mozilla/5.0 (Windows NT 10.0; Win64; x64) AppleWebKit/537.36 (KHTML, like Gecko) Chrome/134.0.0.0 Safari/537.36" version="26.2.4">
  <diagram name="PÃ¡gina-1" id="Bw-3vuzHvK8cUdGuyqDx">
    <mxGraphModel dx="3177" dy="-4218" grid="1" gridSize="10" guides="1" tooltips="1" connect="1" arrows="1" fold="1" page="1" pageScale="1" pageWidth="583" pageHeight="827" background="none" math="0" shadow="1">
      <root>
        <mxCell id="0" />
        <mxCell id="1" parent="0" />
        <mxCell id="2x62SgGYw6rRhBSeBtnu-166" style="edgeStyle=orthogonalEdgeStyle;rounded=0;orthogonalLoop=1;jettySize=auto;html=1;exitX=0.5;exitY=0.5;exitDx=0;exitDy=0;exitPerimeter=0;" parent="1" source="2x62SgGYw6rRhBSeBtnu-167" target="2x62SgGYw6rRhBSeBtnu-177" edge="1">
          <mxGeometry relative="1" as="geometry" />
        </mxCell>
        <mxCell id="2x62SgGYw6rRhBSeBtnu-167" value="Empreendedor/Utilizador" style="shape=umlActor;verticalLabelPosition=bottom;verticalAlign=top;html=1;outlineConnect=0;labelBackgroundColor=none;" parent="1" vertex="1">
          <mxGeometry x="-1550" y="5410" width="30" height="60" as="geometry" />
        </mxCell>
        <mxCell id="2x62SgGYw6rRhBSeBtnu-168" style="edgeStyle=orthogonalEdgeStyle;rounded=0;orthogonalLoop=1;jettySize=auto;html=1;exitX=1;exitY=0.5;exitDx=0;exitDy=0;fillColor=#ffcc99;strokeColor=#FFB570;" parent="1" source="2x62SgGYw6rRhBSeBtnu-169" target="2x62SgGYw6rRhBSeBtnu-180" edge="1">
          <mxGeometry relative="1" as="geometry" />
        </mxCell>
        <mxCell id="2x62SgGYw6rRhBSeBtnu-169" value="Cadastrar funcionario" style="ellipse;whiteSpace=wrap;html=1;labelBackgroundColor=none;strokeColor=#FFB570;" parent="1" vertex="1">
          <mxGeometry x="-1000" y="5405" width="90" height="70" as="geometry" />
        </mxCell>
        <mxCell id="2x62SgGYw6rRhBSeBtnu-170" style="edgeStyle=orthogonalEdgeStyle;rounded=0;orthogonalLoop=1;jettySize=auto;html=1;exitX=1;exitY=0.5;exitDx=0;exitDy=0;entryX=0;entryY=0.5;entryDx=0;entryDy=0;strokeColor=#FFB570;" parent="1" source="2x62SgGYw6rRhBSeBtnu-172" target="2x62SgGYw6rRhBSeBtnu-169" edge="1">
          <mxGeometry relative="1" as="geometry">
            <Array as="points" />
          </mxGeometry>
        </mxCell>
        <mxCell id="2x62SgGYw6rRhBSeBtnu-171" style="edgeStyle=orthogonalEdgeStyle;rounded=0;orthogonalLoop=1;jettySize=auto;html=1;exitX=0.5;exitY=0;exitDx=0;exitDy=0;strokeColor=#FFB570;entryX=0;entryY=0.5;entryDx=0;entryDy=0;" parent="1" source="2x62SgGYw6rRhBSeBtnu-172" target="2x62SgGYw6rRhBSeBtnu-175" edge="1">
          <mxGeometry relative="1" as="geometry" />
        </mxCell>
        <mxCell id="2x62SgGYw6rRhBSeBtnu-172" value="Acesso aos Funcionarios" style="ellipse;whiteSpace=wrap;html=1;labelBackgroundColor=none;fillColor=#ffe6cc;strokeColor=#d79b00;" parent="1" vertex="1">
          <mxGeometry x="-1150" y="5405" width="90" height="70" as="geometry" />
        </mxCell>
        <mxCell id="2x62SgGYw6rRhBSeBtnu-173" style="edgeStyle=orthogonalEdgeStyle;rounded=0;orthogonalLoop=1;jettySize=auto;html=1;exitX=0.5;exitY=0;exitDx=0;exitDy=0;entryX=0;entryY=0.5;entryDx=0;entryDy=0;strokeColor=#FFB570;" parent="1" source="2x62SgGYw6rRhBSeBtnu-175" target="2x62SgGYw6rRhBSeBtnu-219" edge="1">
          <mxGeometry relative="1" as="geometry" />
        </mxCell>
        <mxCell id="2x62SgGYw6rRhBSeBtnu-174" style="edgeStyle=orthogonalEdgeStyle;rounded=0;orthogonalLoop=1;jettySize=auto;html=1;exitX=0.5;exitY=1;exitDx=0;exitDy=0;entryX=0;entryY=0.5;entryDx=0;entryDy=0;strokeColor=#FFB570;" parent="1" source="2x62SgGYw6rRhBSeBtnu-175" target="2x62SgGYw6rRhBSeBtnu-238" edge="1">
          <mxGeometry relative="1" as="geometry" />
        </mxCell>
        <mxCell id="2x62SgGYw6rRhBSeBtnu-175" value="Lista de funcionario" style="ellipse;whiteSpace=wrap;html=1;labelBackgroundColor=none;strokeColor=#FFB570;" parent="1" vertex="1">
          <mxGeometry x="-1061" y="5240" width="90" height="70" as="geometry" />
        </mxCell>
        <mxCell id="2x62SgGYw6rRhBSeBtnu-176" style="edgeStyle=orthogonalEdgeStyle;rounded=0;orthogonalLoop=1;jettySize=auto;html=1;exitX=1;exitY=0.5;exitDx=0;exitDy=0;strokeColor=#97D077;" parent="1" source="2x62SgGYw6rRhBSeBtnu-177" target="2x62SgGYw6rRhBSeBtnu-179" edge="1">
          <mxGeometry relative="1" as="geometry" />
        </mxCell>
        <mxCell id="2x62SgGYw6rRhBSeBtnu-177" value="Login" style="ellipse;whiteSpace=wrap;html=1;labelBackgroundColor=none;fillColor=#d5e8d4;strokeColor=#82b366;" parent="1" vertex="1">
          <mxGeometry x="-1456" y="5405" width="90" height="70" as="geometry" />
        </mxCell>
        <mxCell id="2x62SgGYw6rRhBSeBtnu-178" style="edgeStyle=orthogonalEdgeStyle;rounded=0;orthogonalLoop=1;jettySize=auto;html=1;exitX=1;exitY=0.5;exitDx=0;exitDy=0;strokeColor=#9673A6;" parent="1" source="2x62SgGYw6rRhBSeBtnu-179" target="2x62SgGYw6rRhBSeBtnu-172" edge="1">
          <mxGeometry relative="1" as="geometry" />
        </mxCell>
        <mxCell id="2x62SgGYw6rRhBSeBtnu-179" value="Acesso a conta" style="ellipse;whiteSpace=wrap;html=1;labelBackgroundColor=none;fillColor=#e1d5e7;strokeColor=#9673A6;" parent="1" vertex="1">
          <mxGeometry x="-1305" y="5405" width="90" height="70" as="geometry" />
        </mxCell>
        <mxCell id="2x62SgGYw6rRhBSeBtnu-180" value="SGBD" style="shape=umlActor;verticalLabelPosition=bottom;verticalAlign=top;html=1;outlineConnect=0;labelBackgroundColor=none;" parent="1" vertex="1">
          <mxGeometry x="-810" y="5410" width="30" height="60" as="geometry" />
        </mxCell>
        <mxCell id="2x62SgGYw6rRhBSeBtnu-219" value="Atribuir estado de disponibilidade de funcionario" style="ellipse;whiteSpace=wrap;html=1;labelBackgroundColor=none;strokeColor=#FFB570;" parent="1" vertex="1">
          <mxGeometry x="-933" y="5170" width="110" height="80" as="geometry" />
        </mxCell>
        <mxCell id="2x62SgGYw6rRhBSeBtnu-238" value="Remover estado de disponibilidade de funcionario" style="ellipse;whiteSpace=wrap;html=1;labelBackgroundColor=none;strokeColor=#FFB570;" parent="1" vertex="1">
          <mxGeometry x="-940" y="5300" width="130" height="75" as="geometry" />
        </mxCell>
      </root>
    </mxGraphModel>
  </diagram>
</mxfile>
